<?xml version="1.0" encoding="UTF-8" standalone="no"?>
<!-- Created with Inkscape (http://www.inkscape.org/) -->

<svg
   width="297mm"
   height="210mm"
   viewBox="0 0 297 210"
   version="1.1"
   id="svg1"
   inkscape:version="1.4.2 (f4327f4, 2025-05-13)"
   sodipodi:docname="logos.svg"
   xmlns:inkscape="http://www.inkscape.org/namespaces/inkscape"
   xmlns:sodipodi="http://sodipodi.sourceforge.net/DTD/sodipodi-0.dtd"
   xmlns="http://www.w3.org/2000/svg"
   xmlns:svg="http://www.w3.org/2000/svg">
  <sodipodi:namedview
     id="namedview1"
     pagecolor="#ffffff"
     bordercolor="#000000"
     borderopacity="0.25"
     inkscape:showpageshadow="2"
     inkscape:pageopacity="0.0"
     inkscape:pagecheckerboard="0"
     inkscape:deskcolor="#d1d1d1"
     inkscape:document-units="mm"
     inkscape:zoom="0.5455178"
     inkscape:cx="452.78082"
     inkscape:cy="390.45472"
     inkscape:window-width="1920"
     inkscape:window-height="1009"
     inkscape:window-x="-8"
     inkscape:window-y="-8"
     inkscape:window-maximized="1"
     inkscape:current-layer="layer1" />
  <defs
     id="defs1" />
  <g
     inkscape:label="Vrstva 1"
     inkscape:groupmode="layer"
     id="layer1">
    <rect
       style="fill:#0e0b0b;fill-opacity:1;stroke-width:0.1;paint-order:markers fill stroke"
       id="rect1"
       width="297"
       height="210"
       x="-9.5367432e-06"
       y="-1.4210855e-14"
       inkscape:label="bg"
       sodipodi:insensitive="true" />
    <g
       id="g44"
       style="display:inline;stroke-width:1.00927"
       transform="matrix(1.0832959,0,-0.12508989,0.90622158,29.280514,-35.541764)">
      <g
         id="g4"
         transform="translate(-12.47611,-28.324446)"
         style="stroke-width:1.00927">
        <path
           style="fill:#b8cf27;fill-opacity:1;stroke:none;stroke-width:0.100927;paint-order:markers fill stroke"
           d="m 72.877409,166.07188 c 0,0 8.886455,-56.00261 10.057088,-63.37997 1.170633,-7.377352 -2.078806,-9.965091 -5.131766,-9.750803 -3.05296,0.214288 -5.487297,2.057738 -5.487297,4.801386 0,2.743647 1.629799,5.487297 5.487297,5.487297 3.857498,0 119.533959,-12.528771 119.533959,-12.528771 l -1.29633,8.169471 c 0,0 -110.780115,12.28417 -118.808333,12.28417 -8.028218,0 -12.260679,-6.83971 -12.260679,-12.860851 0,-6.021135 3.742951,-11.349195 12.260679,-12.34642 8.517728,-0.997225 15.386178,4.756303 13.615503,15.915131 l -10.057088,63.37997 z"
           id="path1"
           sodipodi:nodetypes="czzzzcczzzzcc" />
        <path
           style="fill:#b8cf27;fill-opacity:1;stroke:none;stroke-width:0.100927;paint-order:markers fill stroke"
           d="m 74.995327,123.29481 20.693038,-2.1689 -1.296326,8.16947 -20.693038,2.16891 z"
           id="path2"
           sodipodi:nodetypes="ccccc" />
      </g>
      <g
         id="g5"
         transform="matrix(1.0705697,0,0,1.0705697,-20.355698,-40.755716)"
         style="stroke-width:0.942745">
        <path
           style="fill:#b8cf27;fill-opacity:1;stroke:none;stroke-width:0.0942745;paint-order:markers fill stroke"
           d="m 96.289816,158.59201 c 1.516425,-0.85969 2.431975,-3.50638 2.568145,-4.36453 0.788867,-4.97145 2.705129,-17.04779 2.705129,-17.04779 l 8.02804,-0.93022 c 0,0 -2.69911,17.00985 -2.93497,18.49624 -0.23586,1.48639 -1.21964,5.27245 -1.93637,6.3026 -0.71672,1.03016 -1.57978,2.78429 -6.458699,3.29567 -4.878915,0.51137 -8.355274,-6.58244 -8.355274,-6.58244 1.491335,1.33278 4.867575,1.69017 6.383999,0.83047 z"
           id="path3"
           sodipodi:nodetypes="zscczzzcz" />
        <ellipse
           style="font-variation-settings:normal;opacity:1;vector-effect:none;fill:#b8cf27;fill-opacity:1;stroke:none;stroke-width:0.0942745;stroke-linecap:butt;stroke-linejoin:miter;stroke-miterlimit:4;stroke-dasharray:none;stroke-dashoffset:0;stroke-opacity:1;-inkscape-stroke:none;paint-order:markers fill stroke;stop-color:#000000;stop-opacity:1"
           id="path4"
           cx="107.06698"
           cy="127.32541"
           rx="3.9402144"
           ry="3.738152" />
      </g>
      <g
         id="g24"
         transform="matrix(1.0705697,0,0,1.0705697,-0.21076749,-42.838858)"
         style="stroke-width:0.942745">
        <path
           style="fill:#b8cf27;fill-opacity:1;stroke:none;stroke-width:0.0942745;paint-order:markers fill stroke"
           d="m 96.289816,158.59201 c 1.516425,-0.85969 2.431975,-3.50638 2.568145,-4.36453 0.788867,-4.97145 5.900699,-37.18635 5.900699,-37.18635 l 8.01372,-0.83994 -6.11622,38.54452 c -0.23586,1.48639 -1.21964,5.27245 -1.93637,6.3026 -0.71672,1.03016 -1.57978,2.78429 -6.458699,3.29567 -4.878915,0.51137 -8.355274,-6.58244 -8.355274,-6.58244 1.491335,1.33278 4.867575,1.69017 6.383999,0.83047 z"
           id="path24"
           sodipodi:nodetypes="zscczzzcz" />
      </g>
      <g
         id="g27"
         transform="matrix(1.0705697,0,0,1.0705697,20.108041,-45.091908)"
         style="stroke-width:0.942745">
        <path
           style="fill:#b8cf27;fill-opacity:1;stroke:none;stroke-width:0.0942745;paint-order:markers fill stroke"
           d="m 96.289816,158.59201 c 1.516425,-0.85969 2.431975,-3.50638 2.568145,-4.36453 0.788867,-4.97145 2.705129,-17.04779 2.705129,-17.04779 l 8.05858,-0.84465 c 0,0 -2.72965,16.92428 -2.96551,18.41067 -0.23586,1.48639 -1.21964,5.27245 -1.93637,6.3026 -0.71672,1.03016 -1.57978,2.78429 -6.458699,3.29567 -4.878915,0.51137 -8.355274,-6.58244 -8.355274,-6.58244 1.491335,1.33278 4.867575,1.69017 6.383999,0.83047 z"
           id="path27"
           sodipodi:nodetypes="zscczzzcz" />
        <ellipse
           style="font-variation-settings:normal;opacity:1;vector-effect:none;fill:#b8cf27;fill-opacity:1;stroke:none;stroke-width:0.0942745;stroke-linecap:butt;stroke-linejoin:miter;stroke-miterlimit:4;stroke-dasharray:none;stroke-dashoffset:0;stroke-opacity:1;-inkscape-stroke:none;paint-order:markers fill stroke;stop-color:#000000;stop-opacity:1"
           id="ellipse27"
           cx="107.03428"
           cy="127.53148"
           rx="3.9402144"
           ry="3.738152" />
      </g>
      <g
         id="g36"
         transform="matrix(1.0705697,0,0,1.0705697,34.231948,-25.363702)"
         style="stroke-width:0.942745">
        <path
           style="fill:#b8cf27;fill-opacity:1;stroke:none;stroke-width:0.0942745;paint-order:markers fill stroke"
           d="m 96.289816,158.59201 c 1.516425,-0.85969 2.431975,-3.50638 2.568145,-4.36453 0.788867,-4.97145 5.901819,-37.1934 5.901819,-37.1934 l 8.01371,-0.83995 -6.11733,38.55158 c -0.23586,1.48639 -1.21964,5.27245 -1.93637,6.3026 -0.71672,1.03016 -1.57978,2.78429 -6.458699,3.29567 -4.878915,0.51137 -8.355274,-6.58244 -8.355274,-6.58244 1.491335,1.33278 4.867575,1.69017 6.383999,0.83047 z"
           id="path36"
           sodipodi:nodetypes="zscczzzcz" />
        <path
           style="baseline-shift:baseline;display:inline;overflow:visible;opacity:1;vector-effect:none;fill:#b8cf27;stroke-width:0.942745;paint-order:markers fill stroke;enable-background:accumulate;stop-color:#000000;stop-opacity:1"
           d="m 142.93266,88.165296 c -3.81302,1.252272 -5.93317,2.793998 -5.8318,4.069569 -3.74044,4.550383 -3.51821,17.199645 1.84118,23.168095 0.3227,0.43469 4.10383,1.12297 6.62706,0.29429 2.52322,-0.82868 9.22074,-2.98093 8.47418,-13.92266 -0.74656,-10.941732 -7.2976,-14.861566 -11.11062,-13.609294 z m -0.38069,7.489802 c 2.25318,0 4.8953,3.11008 4.8953,7.202322 0,4.09225 -2.52612,6.71875 -4.7793,6.71875 -2.25318,0 -4.7793,-2.6265 -4.7793,-6.71875 0,-4.092242 2.41012,-7.202322 4.6633,-7.202322 z"
           id="path40"
           transform="matrix(0.97798564,0.20867219,-0.23460278,0.97209132,0,0)"
           sodipodi:nodetypes="zcczzzsssss" />
      </g>
    </g>
    <g
       id="g43"
       style="display:none;stroke-width:0.960786"
       transform="matrix(1.0832959,0,-0.12508989,1,28.795501,0.77599475)">
      <path
         style="font-variation-settings:normal;fill:none;fill-opacity:1;stroke:#7c66ff;stroke-width:0.192157;stroke-linecap:butt;stroke-linejoin:miter;stroke-miterlimit:4;stroke-dasharray:none;stroke-dashoffset:0;stroke-opacity:1;paint-order:markers fill stroke"
         d="M 228.4263,120.13615 60.230585,137.76533"
         id="path9" />
      <path
         style="font-variation-settings:normal;fill:none;fill-opacity:1;stroke:#7c66ff;stroke-width:0.192157;stroke-linecap:butt;stroke-linejoin:miter;stroke-miterlimit:4;stroke-dasharray:none;stroke-dashoffset:0;stroke-opacity:1;paint-order:markers fill stroke"
         d="M 233.52234,57.276164 65.326621,74.905344"
         id="path10" />
      <path
         style="font-variation-settings:normal;fill:none;fill-opacity:1;stroke:#7c66ff;stroke-width:0.192157;stroke-linecap:butt;stroke-linejoin:miter;stroke-miterlimit:4;stroke-dasharray:none;stroke-dashoffset:0;stroke-opacity:1;paint-order:markers fill stroke"
         d="M 58.55332,198.43208 85.0571,31.404719"
         id="path11" />
      <path
         style="font-variation-settings:normal;fill:none;fill-opacity:1;stroke:#7c66ff;stroke-width:0.192157;stroke-linecap:butt;stroke-linejoin:miter;stroke-miterlimit:4;stroke-dasharray:none;stroke-dashoffset:0;stroke-opacity:1;paint-order:markers fill stroke"
         d="M 50.966537,197.2055 77.470317,30.178143"
         id="path12" />
      <path
         style="font-variation-settings:normal;fill:none;fill-opacity:1;stroke:#7c66ff;stroke-width:0.192157;stroke-linecap:butt;stroke-linejoin:miter;stroke-miterlimit:4;stroke-dasharray:none;stroke-dashoffset:0;stroke-opacity:1;paint-order:markers fill stroke"
         d="M 76.276665,182.34657 102.78045,15.319217"
         id="path13" />
      <path
         style="font-variation-settings:normal;fill:none;fill-opacity:1;stroke:#7c66ff;stroke-width:0.192157;stroke-linecap:butt;stroke-linejoin:miter;stroke-miterlimit:4;stroke-dasharray:none;stroke-dashoffset:0;stroke-opacity:1;paint-order:markers fill stroke"
         d="M 84.713211,182.34657 111.217,15.319219"
         id="path14" />
      <path
         style="font-variation-settings:normal;fill:none;fill-opacity:1;stroke:#7c66ff;stroke-width:0.192157;stroke-linecap:butt;stroke-linejoin:miter;stroke-miterlimit:4;stroke-dasharray:none;stroke-dashoffset:0;stroke-opacity:1;paint-order:markers fill stroke"
         d="M 237.35778,64.907757 69.162061,82.536937"
         id="path19" />
      <path
         style="font-variation-settings:normal;fill:none;fill-opacity:1;stroke:#7c66ff;stroke-width:0.192157;stroke-linecap:butt;stroke-linejoin:miter;stroke-miterlimit:4;stroke-dasharray:none;stroke-dashoffset:0;stroke-opacity:1;paint-order:markers fill stroke"
         d="M 220.91871,78.367966 52.722984,95.997146"
         id="path20" />
      <path
         style="font-variation-settings:normal;fill:none;fill-opacity:1;stroke:#7c66ff;stroke-width:0.192157;stroke-linecap:butt;stroke-linejoin:miter;stroke-miterlimit:4;stroke-dasharray:none;stroke-dashoffset:0;stroke-opacity:1;paint-order:markers fill stroke"
         d="M 224.75415,85.999559 56.558424,103.62874"
         id="path21" />
      <path
         style="font-variation-settings:normal;fill:none;fill-opacity:1;stroke:#7c66ff;stroke-width:0.192157;stroke-linecap:butt;stroke-linejoin:miter;stroke-miterlimit:4;stroke-dasharray:none;stroke-dashoffset:0;stroke-opacity:1;paint-order:markers fill stroke"
         d="M 48.295986,184.60544 74.799771,17.578087"
         id="path22" />
      <path
         style="font-variation-settings:normal;fill:none;fill-opacity:1;stroke:#7c66ff;stroke-width:0.192157;stroke-linecap:butt;stroke-linejoin:miter;stroke-miterlimit:4;stroke-dasharray:none;stroke-dashoffset:0;stroke-opacity:1;paint-order:markers fill stroke"
         d="M 68.664034,184.48461 95.167823,17.457258"
         id="path23" />
      <path
         style="font-variation-settings:normal;fill:none;fill-opacity:1;stroke:#7c66ff;stroke-width:0.192157;stroke-linecap:butt;stroke-linejoin:miter;stroke-miterlimit:4;stroke-dasharray:none;stroke-dashoffset:0;stroke-opacity:1;paint-order:markers fill stroke"
         d="M 96.421595,180.26343 122.92538,13.236074"
         id="path25" />
      <path
         style="font-variation-settings:normal;fill:none;fill-opacity:1;stroke:#7c66ff;stroke-width:0.192157;stroke-linecap:butt;stroke-linejoin:miter;stroke-miterlimit:4;stroke-dasharray:none;stroke-dashoffset:0;stroke-opacity:1;paint-order:markers fill stroke"
         d="M 116.74041,178.01039 143.24419,10.983024"
         id="path28" />
      <path
         style="font-variation-settings:normal;fill:none;fill-opacity:1;stroke:#7c66ff;stroke-width:0.192157;stroke-linecap:butt;stroke-linejoin:miter;stroke-miterlimit:4;stroke-dasharray:none;stroke-dashoffset:0;stroke-opacity:1;paint-order:markers fill stroke"
         d="M 87.924662,178.12274 114.42844,11.095373"
         id="path31" />
      <path
         style="font-variation-settings:normal;fill:none;fill-opacity:1;stroke:#7c66ff;stroke-width:0.192157;stroke-linecap:butt;stroke-linejoin:miter;stroke-miterlimit:4;stroke-dasharray:none;stroke-dashoffset:0;stroke-opacity:1;paint-order:markers fill stroke"
         d="M 104.36602,183.36478 130.86981,16.337429"
         id="path32" />
      <path
         style="font-variation-settings:normal;fill:none;fill-opacity:1;stroke:#7c66ff;stroke-width:0.192157;stroke-linecap:butt;stroke-linejoin:miter;stroke-miterlimit:4;stroke-dasharray:none;stroke-dashoffset:0;stroke-opacity:1;paint-order:markers fill stroke"
         d="M 107.57747,179.14095 134.08125,12.113583"
         id="path33" />
      <path
         style="font-variation-settings:normal;fill:none;fill-opacity:1;stroke:#7c66ff;stroke-width:0.192157;stroke-linecap:butt;stroke-linejoin:miter;stroke-miterlimit:4;stroke-dasharray:none;stroke-dashoffset:0;stroke-opacity:1;paint-order:markers fill stroke"
         d="M 125.13609,178.56557 151.63988,11.538226"
         id="path34" />
      <path
         style="font-variation-settings:normal;fill:none;fill-opacity:1;stroke:#7c66ff;stroke-width:0.192157;stroke-linecap:butt;stroke-linejoin:miter;stroke-miterlimit:4;stroke-dasharray:none;stroke-dashoffset:0;stroke-opacity:1;paint-order:markers fill stroke"
         d="M 128.34754,174.34174 154.85132,7.3143805"
         id="path35" />
      <path
         style="font-variation-settings:normal;fill:none;fill-opacity:1;stroke:#7c66ff;stroke-width:0.192157;stroke-linecap:butt;stroke-linejoin:miter;stroke-miterlimit:4;stroke-dasharray:none;stroke-dashoffset:0;stroke-opacity:1;paint-order:markers fill stroke"
         d="M 130.8177,198.03228 157.32149,31.004923"
         id="path37" />
      <path
         style="font-variation-settings:normal;fill:none;fill-opacity:1;stroke:#7c66ff;stroke-width:0.192157;stroke-linecap:butt;stroke-linejoin:miter;stroke-miterlimit:4;stroke-dasharray:none;stroke-dashoffset:0;stroke-opacity:1;paint-order:markers fill stroke"
         d="M 138.76213,201.13363 165.26592,34.106278"
         id="path38"
         sodipodi:nodetypes="cc" />
      <path
         style="font-variation-settings:normal;fill:none;fill-opacity:1;stroke:#7c66ff;stroke-width:0.192157;stroke-linecap:butt;stroke-linejoin:miter;stroke-miterlimit:4;stroke-dasharray:none;stroke-dashoffset:0;stroke-opacity:1;paint-order:markers fill stroke"
         d="M 212.93627,92.953918 44.740543,110.58311"
         id="path39" />
      <path
         style="font-variation-settings:normal;fill:none;fill-opacity:1;stroke:#7c66ff;stroke-width:0.192157;stroke-linecap:butt;stroke-linejoin:miter;stroke-miterlimit:4;stroke-dasharray:none;stroke-dashoffset:0;stroke-opacity:1;paint-order:markers fill stroke"
         d="M 207.20197,72.477164 39.006245,90.106344"
         id="path42" />
    </g>
  </g>
</svg>
